<svg width="32" height="32" viewBox="0 0 32 32" fill="none" xmlns="http://www.w3.org/2000/svg">
<path fill-rule="evenodd" clip-rule="evenodd" d="M11.7071 5.29289C11.3166 4.90237 10.6834 4.90237 10.2929 5.29289C9.90237 5.68342 9.90237 6.31658 10.2929 6.70711L13.5858 10H8C6.34315 10 5 11.3431 5 13V24C5 25.6569 6.34315 27 8 27H24C25.6569 27 27 25.6569 27 24V13C27 11.3431 25.6569 10 24 10H18.4142L21.7071 6.70711C22.0976 6.31658 22.0976 5.68342 21.7071 5.29289C21.3166 4.90237 20.6834 4.90237 20.2929 5.29289L16 9.58579L11.7071 5.29289ZM7 13C7 12.4477 7.44772 12 8 12H24C24.5523 12 25 12.4477 25 13V24C25 24.5523 24.5523 25 24 25H8C7.44772 25 7 24.5523 7 24V13Z" fill="#FFF100"/>
</svg>
