<svg width="32" height="32" viewBox="0 0 32 32" fill="none" xmlns="http://www.w3.org/2000/svg">
<path fill-rule="evenodd" clip-rule="evenodd" d="M22 7C20.8954 7 20 7.89543 20 9C20 9.3479 20.0888 9.67506 20.245 9.96002C20.2549 9.975 20.2644 9.99032 20.2735 10.006C20.2826 10.0215 20.2912 10.0372 20.2994 10.0531C20.6521 10.6215 21.2818 11 22 11C23.1046 11 24 10.1046 24 9C24 7.89543 23.1046 7 22 7ZM19.158 11.8148C19.8829 12.5467 20.8885 13 22 13C24.2091 13 26 11.2091 26 9C26 6.79086 24.2091 5 22 5C19.7909 5 18 6.79086 18 9C18 9.37699 18.0522 9.7418 18.1496 10.0876L12.8419 13.1851C12.117 12.4533 11.1114 12 10 12C7.79086 12 6 13.7909 6 16C6 18.2091 7.79086 20 10 20C11.1116 20 12.1174 19.5465 12.8423 18.8145L18.1509 21.908C18.0526 22.2551 18 22.6214 18 23C18 25.2091 19.7909 27 22 27C24.2091 27 26 25.2091 26 23C26 20.7909 24.2091 19 22 19C20.8902 19 19.8859 19.452 19.1613 20.1819L13.8505 17.0872C13.9479 16.7415 14 16.3768 14 16C14 15.623 13.9478 15.2581 13.8503 14.9122L19.158 11.8148ZM11.6988 14.944C11.7074 14.9608 11.7165 14.9775 11.7262 14.994C11.7359 15.0107 11.746 15.027 11.7565 15.0429C11.9118 15.3272 12 15.6533 12 16C12 16.3468 11.9117 16.6729 11.7565 16.9572C11.7459 16.9733 11.7356 16.9897 11.7258 17.0065C11.7163 17.0228 11.7073 17.0393 11.6988 17.0559C11.3458 17.6228 10.7169 18 10 18C8.89543 18 8 17.1046 8 16C8 14.8954 8.89543 14 10 14C10.7169 14 11.3457 14.3772 11.6988 14.944ZM20 23C20 22.6746 20.0777 22.3674 20.2156 22.0958C20.2401 22.0636 20.2629 22.0294 20.2839 21.9935C20.3039 21.959 20.3217 21.9239 20.3373 21.8882C20.6961 21.3526 21.3069 21 22 21C23.1046 21 24 21.8954 24 23C24 24.1046 23.1046 25 22 25C20.8954 25 20 24.1046 20 23Z" fill="#FFF100"/>
</svg>
