<svg width="32" height="32" viewBox="0 0 32 32" fill="none" xmlns="http://www.w3.org/2000/svg">
<path fill-rule="evenodd" clip-rule="evenodd" d="M23.0822 7.33209L23.0822 7.33205C23.2925 7.12179 23.5777 7.00366 23.8751 7.00366C24.1725 7.00366 24.4577 7.1218 24.668 7.33209C24.8783 7.54238 24.9964 7.82759 24.9964 8.12498C24.9964 8.42237 24.8783 8.70759 24.668 8.91788L24.6679 8.91791L15.6553 17.9316L23.0822 7.33209ZM23.0822 7.33209L15.6549 17.9319C15.5363 18.0504 15.3897 18.1371 15.2288 18.1841L15.2285 18.1842L13.2323 18.7678L13.8156 16.7727L13.8157 16.7722C13.863 16.6114 13.95 16.4651 14.0686 16.3467L14.0692 16.3461L23.0822 7.33209ZM23.8751 5.00366C23.0473 5.00366 22.2533 5.33251 21.668 5.91788L21.6679 5.91791L12.6556 14.9313L12.6553 14.9315C12.2993 15.2871 12.0384 15.7265 11.8966 16.2093L11.8963 16.2104L11.0563 19.0834L11.0561 19.084C10.9808 19.3421 10.9763 19.6158 11.043 19.8763C11.1098 20.1367 11.2453 20.3745 11.4354 20.5646C11.6256 20.7548 11.8633 20.8903 12.1238 20.9571C12.3843 21.0238 12.6579 21.0193 12.9161 20.944L12.9167 20.9438L15.7894 20.1039C16.2727 19.9628 16.7127 19.7023 17.0689 19.3464L17.0692 19.3461L26.0822 10.3321L26.0822 10.332C26.6676 9.74669 26.9964 8.95279 26.9964 8.12498C26.9964 7.29716 26.6676 6.50324 26.0822 5.91788C25.4968 5.33251 24.7029 5.00366 23.8751 5.00366ZM9 6C8.20435 6 7.44129 6.31607 6.87868 6.87868C6.31607 7.44129 6 8.20435 6 9V23C6 23.7957 6.31607 24.5587 6.87868 25.1213C7.44129 25.6839 8.20435 26 9 26H23C23.7957 26 24.5587 25.6839 25.1213 25.1213C25.6839 24.5587 26 23.7957 26 23V16C26 15.4477 25.5523 15 25 15C24.4477 15 24 15.4477 24 16V23C24 23.2652 23.8946 23.5196 23.7071 23.7071C23.5196 23.8946 23.2652 24 23 24H9C8.73478 24 8.48043 23.8946 8.29289 23.7071C8.10536 23.5196 8 23.2652 8 23V9C8 8.73478 8.10536 8.48043 8.29289 8.29289C8.48043 8.10536 8.73478 8 9 8H16C16.5523 8 17 7.55228 17 7C17 6.44772 16.5523 6 16 6H9Z" fill="#FFF100"/>
</svg>
