<svg width="26" height="18" viewBox="0 0 26 18" fill="none" xmlns="http://www.w3.org/2000/svg">
<path d="M23.995 0.000434763C23.7352 0.0081759 23.4886 0.116755 23.3075 0.303169L8.01449 15.5961L1.72152 9.30317C1.62937 9.2072 1.51901 9.13057 1.39688 9.07779C1.27475 9.025 1.14332 8.99712 1.01027 8.99576C0.877234 8.99441 0.745261 9.01962 0.622083 9.06991C0.498906 9.12019 0.387001 9.19456 0.292923 9.28863C0.198844 9.38271 0.124482 9.49462 0.0741933 9.61779C0.0239041 9.74097 -0.00130181 9.87295 5.17615e-05 10.006C0.00140533 10.139 0.0292912 10.2705 0.0820761 10.3926C0.134861 10.5147 0.211484 10.6251 0.307457 10.7172L7.30746 17.7172C7.495 17.9047 7.74932 18.01 8.01449 18.01C8.27966 18.01 8.53398 17.9047 8.72152 17.7172L24.7215 1.71723C24.866 1.57677 24.9647 1.39593 25.0047 1.19841C25.0446 1.00089 25.024 0.795905 24.9455 0.610319C24.8669 0.424733 24.7341 0.267204 24.5645 0.158375C24.3949 0.0495457 24.1964 -0.0055056 23.995 0.000434763Z" fill="white"/>
</svg>
