<svg width="48" height="48" viewBox="0 0 48 48" fill="none" xmlns="http://www.w3.org/2000/svg">
<g clip-path="url(#clip0_62_4825)">
<path fill-rule="evenodd" clip-rule="evenodd" d="M24.336 0.0384004C25.9968 0.0672004 27.0432 0.1248 27.744 0.24C28.3008 0.3264 29.3184 0.5376 30 0.72C30.6816 0.8928 31.68 1.1904 32.208 1.3824C32.736 1.584 33.8208 2.0544 34.608 2.448C35.4048 2.832 36.6144 3.5232 37.296 3.984C37.9776 4.4448 38.9088 5.1264 39.36 5.5008C39.8112 5.8752 40.5888 6.5952 41.088 7.104C41.5872 7.6032 42.2976 8.3904 42.6528 8.832C43.0176 9.2832 43.6608 10.1664 44.0832 10.8C44.5056 11.4336 45.168 12.6048 45.552 13.392C45.936 14.1888 46.416 15.264 46.608 15.792C46.8 16.32 47.1072 17.3088 47.28 18C47.4624 18.6912 47.6832 19.7472 47.7792 20.352C47.9136 21.2256 47.952 21.9936 47.952 24.048C47.9424 26.0448 47.904 26.8704 47.7792 27.648C47.6832 28.2048 47.4816 29.1936 47.3184 29.856C47.1552 30.5184 46.848 31.5264 46.6368 32.112C46.4256 32.6976 45.936 33.8208 45.552 34.608C45.168 35.4048 44.5056 36.5664 44.0832 37.2C43.6608 37.8336 43.0176 38.7168 42.6528 39.168C42.2976 39.6192 41.5488 40.4352 40.992 40.992C40.4352 41.5488 39.6192 42.2976 39.168 42.6528C38.7168 43.0176 37.8336 43.6608 37.2 44.0832C36.5664 44.496 35.3952 45.168 34.608 45.552C33.8112 45.9456 32.736 46.416 32.208 46.6176C31.68 46.8096 30.6624 47.1072 29.952 47.2896C29.2416 47.472 28.224 47.6832 27.696 47.7696C27.1392 47.856 25.8432 47.9424 24.624 47.9712C23.3088 48 22.1184 47.9808 21.456 47.904C20.8704 47.8464 19.8816 47.6928 19.248 47.5584C18.6144 47.4336 17.6448 47.1936 17.088 47.0304C16.5312 46.8672 15.6096 46.5408 15.024 46.3008C14.4384 46.0704 13.4688 45.6192 12.864 45.3024C12.2592 44.9856 11.28 44.4 10.704 44.016C10.128 43.632 9.2832 43.0176 8.832 42.6528C8.38081 42.2976 7.5648 41.5488 7.008 40.992C6.4512 40.4352 5.7024 39.6192 5.3472 39.168C4.9824 38.7168 4.368 37.8816 3.984 37.296C3.5904 36.7104 2.9952 35.7024 2.6496 35.04C2.304 34.3776 1.8336 33.3408 1.5936 32.736C1.3536 32.1312 1.0176 31.0944 0.835204 30.432C0.652804 29.7696 0.403204 28.6656 0.278404 27.984C0.0768042 26.8704 0.0480042 26.448 0.0480042 24C0.0480042 21.552 0.0768042 21.1296 0.278404 20.016C0.403204 19.3248 0.652804 18.2304 0.835204 17.568C1.0176 16.9056 1.3536 15.8688 1.5936 15.264C1.8336 14.6592 2.2848 13.6608 2.592 13.056C2.8992 12.4512 3.504 11.4336 3.9264 10.8C4.3392 10.1664 4.9824 9.2832 5.3472 8.832C5.7024 8.3808 6.4512 7.5648 7.008 7.008C7.5648 6.4512 8.38081 5.7024 8.832 5.3472C9.2832 4.9824 10.1664 4.3392 10.8 3.9264C11.4336 3.504 12.4512 2.9088 13.056 2.6016C13.6608 2.2848 14.6592 1.8432 15.264 1.6032C15.8688 1.3632 16.8192 1.0368 17.376 0.8832C17.9328 0.7296 18.7488 0.528 19.2 0.432C19.6512 0.3456 20.448 0.2112 20.976 0.144C21.6288 0.0480004 22.7136 0.0192004 24.336 0.0384004ZM23.76 3.312C23.7888 3.3984 23.9232 3.456 24.0672 3.456C24.2208 3.456 24.9024 3.504 25.584 3.552C26.2656 3.6096 27.3696 3.7632 28.032 3.8976C28.6944 4.032 29.7504 4.3104 30.384 4.512C31.0176 4.7232 32.0352 5.1264 32.64 5.4048C33.2448 5.6832 34.1568 6.1728 34.656 6.48C35.1552 6.7968 36 7.3728 36.528 7.776C37.0464 8.1696 37.9392 8.9472 38.496 9.504C39.0528 10.0608 39.8304 10.9536 40.224 11.472C40.6272 12 41.2032 12.8448 41.52 13.344C41.8272 13.8432 42.2976 14.7072 42.5568 15.264C42.816 15.8208 43.1904 16.7424 43.392 17.328C43.584 17.9136 43.8432 18.7776 43.9488 19.248C44.064 19.7184 44.2176 20.544 44.2944 21.072C44.3712 21.6 44.4576 22.5216 44.4864 23.1168C44.5344 23.952 44.5728 24.2016 44.688 24.24C44.7648 24.2688 44.8992 24.2304 44.9856 24.1728C45.12 24.0672 45.1392 23.904 45.0816 22.992C45.0432 22.4064 44.9472 21.4848 44.8704 20.928C44.784 20.3712 44.6016 19.4496 44.4576 18.864C44.304 18.2784 44.0064 17.3088 43.7856 16.704C43.5552 16.0992 43.1232 15.1008 42.816 14.496C42.5088 13.8912 42.0288 13.0464 41.7504 12.624C41.4816 12.2016 40.992 11.5104 40.6656 11.088C40.3392 10.6656 39.6864 9.9168 39.216 9.4176C38.7456 8.928 37.9584 8.1888 37.488 7.7952C37.0176 7.392 36.1728 6.768 35.616 6.4032C35.0592 6.0384 34.0896 5.4816 33.456 5.1648C32.8224 4.8384 31.8528 4.416 31.296 4.2048C30.7392 4.0032 29.7888 3.7056 29.184 3.5616C28.5792 3.408 27.6288 3.216 27.072 3.1296C26.5152 3.0528 25.584 2.9568 25.008 2.9184C24.096 2.8608 23.9328 2.88 23.8272 3.0144C23.7696 3.1008 23.7312 3.2352 23.76 3.312ZM23.6928 6.384C23.7024 6.4608 23.808 6.5664 23.9232 6.6144C24.048 6.6528 24.6432 6.72 25.248 6.7488C25.8528 6.7776 26.8032 6.8928 27.36 7.008C27.9168 7.1136 28.8672 7.3728 29.472 7.5744C30.0768 7.776 30.9408 8.1216 31.392 8.3328C31.8432 8.5536 32.5728 8.9472 33.024 9.2256C33.4752 9.4944 34.1856 9.984 34.608 10.3104C35.0304 10.6272 35.7696 11.28 36.24 11.76C36.72 12.2304 37.3728 12.9696 37.6896 13.392C38.0064 13.8144 38.4384 14.4192 38.64 14.736C38.8416 15.0528 39.2352 15.7632 39.5136 16.32C39.792 16.8768 40.1952 17.8464 40.4064 18.48C40.6176 19.1136 40.8768 20.0832 40.992 20.64C41.1072 21.1968 41.2224 22.1472 41.2512 22.752C41.28 23.3568 41.3472 23.952 41.3856 24.0672C41.4336 24.192 41.5392 24.288 41.616 24.288C41.6928 24.288 41.7984 24.2112 41.8464 24.1152C41.8848 24.0288 41.8944 23.4144 41.8464 22.752C41.808 22.0896 41.6832 21.1008 41.568 20.544C41.4528 19.9872 41.2128 19.0656 41.0208 18.48C40.8384 17.8944 40.416 16.8672 40.08 16.176C39.744 15.4848 39.2256 14.5632 38.9184 14.112C38.6208 13.6608 38.1024 12.9696 37.776 12.576C37.4496 12.1824 36.7872 11.4912 36.3168 11.04C35.8464 10.5888 35.1456 9.984 34.752 9.6864C34.3584 9.3984 33.7056 8.9568 33.312 8.7072C32.9184 8.4672 32.1408 8.0544 31.584 7.7952C31.0272 7.536 30.2304 7.2096 29.808 7.0656C29.3856 6.9216 28.6272 6.7008 28.128 6.576C27.6288 6.4608 26.8032 6.3072 26.304 6.2592C25.8048 6.2016 25.0944 6.1344 24.72 6.1056C24.3552 6.0864 23.9616 6.1056 23.8656 6.1536C23.76 6.2112 23.6832 6.3168 23.6928 6.384ZM23.6928 9.456C23.7024 9.5328 23.7888 9.6384 23.8752 9.6864C23.9712 9.7248 24.4992 9.792 25.056 9.8208C25.6128 9.8496 26.4096 9.9456 26.832 10.032C27.2544 10.1184 27.9936 10.32 28.464 10.4736C28.9344 10.6368 29.6928 10.9344 30.144 11.1456C30.5952 11.3568 31.392 11.8176 31.92 12.1632C32.56 12.592 33.2672 13.1904 34.0416 13.9584C34.8096 14.7328 35.408 15.44 35.8368 16.08C36.1824 16.608 36.6432 17.4048 36.8544 17.856C37.0656 18.3072 37.3536 19.0176 37.488 19.44C37.632 19.8624 37.8336 20.5728 37.9296 21.024C38.0256 21.4752 38.1408 22.3104 38.1696 22.896C38.208 23.4816 38.2752 24.0288 38.3136 24.1152C38.3616 24.2112 38.4672 24.288 38.544 24.288C38.6208 24.288 38.7168 24.2304 38.7552 24.1536C38.8032 24.0768 38.8032 23.52 38.7648 22.9248C38.7264 22.3296 38.6016 21.408 38.4864 20.88C38.3808 20.352 38.1504 19.5552 37.9968 19.104C37.8336 18.6528 37.4784 17.8368 37.2 17.28C36.912 16.7232 36.4128 15.8784 36.0768 15.408C35.7408 14.9376 35.0208 14.0928 34.464 13.536C33.9072 12.9792 33.0624 12.2592 32.592 11.9232C32.1216 11.5872 31.2768 11.088 30.72 10.8C30.1632 10.5216 29.2608 10.1376 28.704 9.9456C28.1472 9.7632 27.3504 9.5424 26.928 9.456C26.5056 9.3696 25.8144 9.2832 25.392 9.2544C24.9696 9.2256 24.4896 9.1968 24.336 9.1776C24.1728 9.1584 23.9616 9.1776 23.856 9.2256C23.76 9.2832 23.6832 9.3888 23.6928 9.456ZM21.696 15.12C21.3504 15.2064 20.7648 15.3984 20.4 15.552C20.0352 15.7056 19.3824 16.0608 18.96 16.3392C18.5376 16.6176 17.8848 17.1456 17.52 17.52C17.1456 17.8848 16.6176 18.5376 16.3392 18.96C16.0608 19.3824 15.7056 20.0352 15.552 20.4C15.3984 20.7648 15.2064 21.3312 15.1296 21.648C15.0432 21.9648 14.928 22.5888 14.8704 23.04C14.8128 23.4912 14.8032 24.2016 14.832 24.624C14.8704 25.0464 15.0048 25.8048 15.1296 26.304C15.2544 26.8032 15.552 27.6096 15.792 28.08C16.0224 28.5504 16.4928 29.2896 16.8288 29.712C17.1648 30.1344 17.808 30.7776 18.2496 31.1328C18.6912 31.488 19.4496 31.9776 19.92 32.208C20.3904 32.448 21.216 32.7552 21.744 32.8896C22.5504 33.1008 22.9056 33.1392 24 33.1392C25.0944 33.1392 25.4496 33.1008 26.256 32.8896C26.784 32.7552 27.6096 32.448 28.08 32.208C28.5504 31.9776 29.3088 31.488 29.7504 31.1328C30.192 30.7776 30.8352 30.1344 31.1712 29.712C31.5072 29.2896 31.9776 28.5504 32.208 28.08C32.448 27.6096 32.7552 26.784 32.8896 26.256C33.1008 25.4496 33.1392 25.0944 33.1392 24C33.1392 22.9056 33.1008 22.5504 32.8896 21.744C32.7552 21.216 32.448 20.3904 32.208 19.92C31.9776 19.4496 31.5072 18.7104 31.1712 18.288C30.8352 17.8656 30.192 17.2224 29.7504 16.8672C29.3088 16.512 28.5504 16.0224 28.08 15.792C27.6096 15.552 26.8032 15.2544 26.304 15.1296C25.7952 14.9952 24.9696 14.8704 24.432 14.8416C23.904 14.8224 23.2128 14.832 22.896 14.88C22.5792 14.9184 22.0416 15.024 21.696 15.12ZM2.9088 25.0464C2.9472 25.6032 3.0528 26.5152 3.1296 27.072C3.2064 27.6288 3.4176 28.6464 3.6 29.328C3.7728 30.0096 4.0704 30.9696 4.2528 31.44C4.4352 31.9104 4.8384 32.8224 5.1648 33.456C5.4816 34.0896 6.0384 35.0592 6.4032 35.616C6.768 36.1728 7.3152 36.9216 7.6224 37.296C7.9392 37.6704 8.5152 38.304 8.9184 38.7168C9.3216 39.1296 10.032 39.8016 10.512 40.2048C10.9824 40.5984 11.808 41.2128 12.336 41.568C12.864 41.9136 13.8528 42.4896 14.544 42.8352C15.2256 43.1808 16.4352 43.6896 17.232 43.9584C18.0192 44.2272 19.2096 44.5536 19.872 44.6784C20.5344 44.8128 21.7344 44.976 22.5312 45.0432C23.8752 45.1584 24.0096 45.1584 24.1632 45.0048C24.2592 44.9184 24.3072 44.784 24.2784 44.7168C24.24 44.6304 23.8656 44.5632 23.1264 44.5152C22.5216 44.4672 21.6 44.3712 21.072 44.2944C20.544 44.2176 19.7184 44.064 19.248 43.9488C18.768 43.8432 17.8848 43.584 17.28 43.3728C16.6752 43.1616 15.6576 42.7392 15.024 42.432C14.3904 42.1248 13.4208 41.5776 12.864 41.2128C12.3072 40.848 11.5104 40.272 11.088 39.9264C10.6656 39.5904 9.9552 38.9472 9.504 38.496C9.0528 38.0448 8.4192 37.3536 8.1024 36.96C7.776 36.5664 7.2 35.7696 6.816 35.184C6.432 34.5984 5.8656 33.5904 5.5392 32.928C5.2224 32.2656 4.7808 31.1616 4.5504 30.48C4.32 29.7984 4.032 28.6944 3.8976 28.032C3.7632 27.3696 3.6096 26.1792 3.552 25.392C3.4944 24.5952 3.4272 23.8944 3.3984 23.8272C3.3792 23.7696 3.3024 23.712 3.2256 23.712C3.1488 23.712 3.0336 23.7792 2.9664 23.8656C2.8608 23.9904 2.8512 24.24 2.9088 25.0464ZM6.1536 25.248C6.2016 25.9104 6.288 26.7072 6.336 27.024C6.3936 27.3408 6.5568 28.032 6.6912 28.56C6.8256 29.088 7.0752 29.8848 7.248 30.336C7.4208 30.7872 7.7472 31.5168 7.968 31.968C8.1984 32.4192 8.55361 33.0624 8.7648 33.408C8.98561 33.7536 9.3984 34.3584 9.6864 34.752C9.984 35.1456 10.5888 35.8464 11.04 36.3168C11.4912 36.7872 12.1824 37.4496 12.576 37.776C12.9696 38.1024 13.6608 38.6208 14.112 38.9184C14.5632 39.216 15.4272 39.7152 16.032 40.0224C16.6368 40.3296 17.6736 40.752 18.336 40.9728C18.9984 41.184 19.9872 41.4528 20.544 41.568C21.1008 41.6832 22.0896 41.808 22.752 41.8464C23.4144 41.8944 24.0288 41.8848 24.1152 41.8464C24.2112 41.7984 24.288 41.6928 24.288 41.616C24.288 41.5392 24.192 41.4336 24.0672 41.3856C23.952 41.3472 23.3568 41.28 22.752 41.2512C22.1472 41.2224 21.1968 41.1072 20.64 40.992C20.0832 40.8864 19.1136 40.6176 18.48 40.4064C17.8464 40.1952 16.8768 39.792 16.32 39.5136C15.7632 39.2352 15.0528 38.8416 14.736 38.64C14.4192 38.4384 13.8144 38.0064 13.392 37.6896C12.9696 37.3728 12.2304 36.72 11.76 36.24C11.28 35.7696 10.6272 35.0304 10.3104 34.608C9.984 34.1856 9.4944 33.4752 9.2256 33.024C8.9472 32.5728 8.55361 31.8432 8.3328 31.392C8.1216 30.9408 7.776 30.0768 7.5744 29.472C7.3728 28.8672 7.1232 27.9168 7.008 27.36C6.8928 26.8032 6.768 25.8144 6.7296 25.152C6.6912 24.4896 6.624 23.8944 6.5952 23.8272C6.5568 23.7696 6.4608 23.712 6.384 23.712C6.3072 23.712 6.2016 23.7888 6.1536 23.8752C6.1056 23.9808 6.1056 24.5184 6.1536 25.248ZM9.2256 25.104C9.264 25.6896 9.3696 26.5056 9.456 26.928C9.5424 27.3504 9.7632 28.1472 9.9456 28.704C10.128 29.2608 10.5024 30.1536 10.7808 30.6912C11.0592 31.2384 11.5584 32.0736 11.904 32.5632C12.2496 33.0528 12.9792 33.9072 13.536 34.464C14.0928 35.0208 14.9376 35.7408 15.408 36.0768C15.8784 36.4128 16.7232 36.912 17.28 37.2C17.8368 37.4784 18.7392 37.8624 19.296 38.0544C19.8528 38.2368 20.6496 38.4576 21.072 38.544C21.4944 38.6304 22.3296 38.736 22.9248 38.7648C23.52 38.8032 24.0768 38.8032 24.1536 38.7552C24.2304 38.7168 24.288 38.6208 24.288 38.544C24.288 38.4672 24.2112 38.3616 24.1152 38.3136C24.0288 38.2752 23.4816 38.208 22.896 38.1792C22.3104 38.1408 21.3888 38.016 20.832 37.8912C20.2752 37.7568 19.3728 37.4784 18.816 37.2576C18.2592 37.0464 17.4624 36.672 17.04 36.432C16.6176 36.192 15.9072 35.7216 15.456 35.3856C15.0048 35.0496 14.2272 34.3488 13.728 33.8304C13.2288 33.3024 12.528 32.448 12.1728 31.92C11.8176 31.392 11.3568 30.5952 11.1456 30.144C10.9344 29.6928 10.6368 28.9344 10.4736 28.464C10.32 27.9936 10.1184 27.2544 10.032 26.832C9.9456 26.4096 9.8496 25.6128 9.8208 25.056C9.792 24.4992 9.7248 23.9712 9.6864 23.8752C9.6384 23.7888 9.5328 23.712 9.456 23.712C9.3792 23.712 9.2832 23.7888 9.2352 23.8752C9.1872 23.9712 9.1872 24.5184 9.2256 25.104ZM24 22.272C24.1824 22.272 24.528 22.368 24.768 22.4832C25.008 22.608 25.296 22.8576 25.4208 23.04C25.536 23.2224 25.6608 23.5296 25.6896 23.712C25.728 23.8944 25.728 24.1728 25.6896 24.336C25.6608 24.4896 25.536 24.7776 25.4208 24.96C25.296 25.1424 25.008 25.392 24.768 25.5168C24.528 25.632 24.1824 25.728 24 25.728C23.8176 25.728 23.472 25.632 23.232 25.5168C22.992 25.392 22.704 25.1424 22.5792 24.96C22.464 24.7776 22.3392 24.4896 22.3104 24.336C22.272 24.1728 22.272 23.8944 22.3104 23.712C22.3392 23.5296 22.464 23.2224 22.5792 23.04C22.704 22.8576 22.992 22.608 23.232 22.4832C23.472 22.368 23.8176 22.272 24 22.272Z" fill="black"/>
</g>
<defs>
<clipPath id="clip0_62_4825">
<rect width="48" height="48" fill="white"/>
</clipPath>
</defs>
</svg>
