<svg width="49" height="37" viewBox="0 0 49 37" fill="none" xmlns="http://www.w3.org/2000/svg">
<path fill-rule="evenodd" clip-rule="evenodd" d="M24.513 0.92601C35.087 1.07601 43.762 10.583 48.107 18.763C48.107 18.763 46.578 21.892 45.144 23.895C44.45 24.864 43.72 25.808 42.953 26.721C42.406 27.371 41.841 28.004 41.255 28.619C36.018 34.119 28.497 38.222 20.555 36.629C11.732 34.859 4.53498 27.299 0.208984 19.168C0.208984 19.168 1.74498 16.036 3.18699 14.036C3.83299 13.139 4.51098 12.266 5.22098 11.419C5.76498 10.77 6.32898 10.137 6.91198 9.52201C11.539 4.64601 17.476 0.89201 24.513 0.92601ZM24.476 4.92601C18.586 4.90401 13.688 8.19301 9.81298 12.276C9.28598 12.831 8.77798 13.403 8.28598 13.989C7.63898 14.761 7.02098 15.558 6.43198 16.375C5.84298 17.191 5.23898 18.221 4.75998 19.096C8.57398 25.505 14.299 31.294 21.342 32.707C27.905 34.024 34.03 30.406 38.358 25.861C38.887 25.306 39.398 24.733 39.892 24.146C40.592 23.313 41.258 22.452 41.891 21.567C42.477 20.748 43.08 19.716 43.558 18.84C39.6 12.215 32.828 5.05601 24.476 4.92601Z" fill="black"/>
<path fill-rule="evenodd" clip-rule="evenodd" d="M24.1576 10.948C28.5826 10.948 32.1756 14.541 32.1756 18.965C32.1756 23.39 28.5826 26.982 24.1576 26.982C19.7336 26.982 16.1406 23.39 16.1406 18.965C16.1406 14.541 19.7336 10.948 24.1576 10.948ZM24.1576 14.957C26.3706 14.957 28.1666 16.753 28.1666 18.965C28.1666 21.178 26.3706 22.974 24.1576 22.974C21.9456 22.974 20.1496 21.178 20.1496 18.965C20.1496 16.753 21.9456 14.957 24.1576 14.957Z" fill="black"/>
</svg>