<svg width="96" height="56" viewBox="0 0 96 56" fill="none" xmlns="http://www.w3.org/2000/svg">
<path fill-rule="evenodd" clip-rule="evenodd" d="M64.3447 16.2911L4.00646 3.95801L44.5055 22.4456L31.3759 39.7507L91.7141 52.0597L51.2151 33.5962L64.3447 16.2911Z" fill="#FFF100"/>
<path fill-rule="evenodd" clip-rule="evenodd" d="M4.48916 0L4.82706 0.0724075L65.0929 12.3814L65.4308 12.4538L65.7687 12.5986L66.1066 12.7434L66.4445 12.9607L66.71 13.1779L66.9755 13.3951L67.2409 13.6606L67.4582 13.9261L67.6754 14.264L67.8926 14.5294L68.0374 14.8673L68.1822 15.2052L68.2546 15.5431V15.9534L68.327 16.2913L68.2546 16.6292V16.9671L68.1098 17.3774L68.0374 17.7153L67.8926 18.0532L67.6754 18.3187L67.4582 18.6566L57.3213 32.0034L93.307 48.4878L93.5725 48.6326L93.9104 48.8498L94.1759 49.0671L94.4414 49.3325L94.7069 49.598L94.9241 49.8635L95.0689 50.129L95.2861 50.4669L95.431 50.8048L95.5034 51.1427L95.5758 51.4806L95.6482 51.8909V52.2288L95.5758 52.5667L95.5034 52.9046L95.431 53.2425L95.2861 53.5804L95.1413 53.9183L94.9241 54.2561L94.7069 54.5216L94.4414 54.7871L94.1759 55.0043L93.9104 55.2698L93.6449 55.4871L93.307 55.6319L92.9692 55.7767L92.6313 55.9215L92.2934 55.9939H91.9555H91.6176H91.2073L90.8694 55.9215L30.6036 43.6125L30.2657 43.5401L29.9278 43.3953L29.5899 43.2505L29.252 43.0332L28.9865 42.816L28.721 42.5988L28.4555 42.3333L28.2383 42.0678L28.0211 41.7299L27.8039 41.4644L27.6591 41.1265L27.5142 40.7887L27.4418 40.4508V40.0405L27.3694 39.7026L27.4418 39.3647V38.9544L27.5866 38.6165L27.6591 38.2786L27.8763 37.9407L28.0211 37.6752L28.2383 37.3373L38.3751 23.9905L2.38939 7.50608L2.1239 7.36126L1.73774 7.19232L1.47225 6.9751L1.20676 6.70961L0.989547 6.44413L0.724057 6.17864L0.579247 5.91315L0.362029 5.57526L0.217218 5.23736L0.14481 4.89947L0.0724075 4.56157L0 4.15127V3.81338L0.0724075 3.47548L0.14481 3.13759L0.217218 2.79969L0.362029 2.4618L0.506844 2.12391L0.724057 1.78601L0.941275 1.52053L1.20676 1.25504L1.47225 0.989547L1.73774 0.772329L2.00323 0.555111L2.34112 0.4103L2.67901 0.26549L3.01692 0.120679L3.35481 0.0482717H3.6927H4.103H4.48916V0ZM44.5055 22.4458L31.3759 39.7508L91.7141 52.0598L51.2151 33.5963L64.3447 16.2913L4.00646 3.98232L44.5055 22.4458Z" fill="black"/>
</svg>
