<svg width="54" height="54" viewBox="0 0 54 54" fill="none" xmlns="http://www.w3.org/2000/svg">
<path d="M26.0359 2.50214C26.3055 1.5227 27.6945 1.5227 27.9641 2.50213L30.1037 10.2738C31.9324 16.9005 37.0995 22.0677 43.7262 23.8964L51.4979 26.0359C52.4773 26.3055 52.4773 27.6945 51.4979 27.9641L43.7262 30.1037C37.0995 31.9323 31.9324 37.0995 30.1037 43.7262L27.9641 51.4979C27.6945 52.4773 26.3055 52.4773 26.0359 51.4979L23.8964 43.7262C22.0677 37.0995 16.9006 31.9323 10.2739 30.1037L2.50218 27.9641C1.52274 27.6945 1.52274 26.3055 2.50218 26.0359L10.2739 23.8964C16.9006 22.0677 22.0677 16.9005 23.8964 10.2738L26.0359 2.50214Z" fill="white" stroke="black" stroke-width="3" stroke-miterlimit="10"/>
</svg>
