<svg aria-hidden="true" xmlns="http://www.w3.org/2000/svg" xmlns:xlink="http://www.w3.org/1999/xlink"><symbol viewBox="0 0 20 20" fill="none" id="icon-arrow" xmlns="http://www.w3.org/2000/svg">
<path d="M5 7.5L10 12.5L15 7.5" stroke="currentColor" stroke-width="2" stroke-linecap="square" stroke-linejoin="round"/>
</symbol><symbol viewBox="0 0 32 32" fill="none" id="icon-close" xmlns="http://www.w3.org/2000/svg">
<path d="M24 8L8 24" stroke="currentColor" stroke-width="3" stroke-linecap="round" stroke-linejoin="round"/>
<path d="M8 8L24 24" stroke="currentColor" stroke-width="3" stroke-linecap="round" stroke-linejoin="round"/>
</symbol><symbol viewBox="0 0 32 32" fill="none" id="icon-copy" xmlns="http://www.w3.org/2000/svg">
<path d="M8 20C6.9 20 6 19.1 6 18V8C6 6.9 6.9 6 8 6H18C19.1 6 20 6.9 20 8M14 12H24C25.1046 12 26 12.8954 26 14V24C26 25.1046 25.1046 26 24 26H14C12.8954 26 12 25.1046 12 24V14C12 12.8954 12.8954 12 14 12Z" stroke="currentColor" stroke-width="2" stroke-linecap="round" stroke-linejoin="round"/>
</symbol><symbol viewBox="0 0 24 24" fill="none" id="icon-large-small" xmlns="http://www.w3.org/2000/svg">
<path d="M21 14H16M16 16V12.5C16 11.837 16.2634 11.2011 16.7322 10.7322C17.2011 10.2634 17.837 10 18.5 10C19.163 10 19.7989 10.2634 20.2678 10.7322C20.7366 11.2011 21 11.837 21 12.5V16M4.5 13H10.5M3 16L7.5 7L12 16" stroke="currentColor" stroke-width="2" stroke-linecap="round" stroke-linejoin="round"/>
</symbol><symbol viewBox="0 0 32 32" fill="none" id="icon-pen" xmlns="http://www.w3.org/2000/svg">
<path fill-rule="evenodd" clip-rule="evenodd" d="M23.0822 7.33209L23.0822 7.33205C23.2925 7.12179 23.5777 7.00366 23.8751 7.00366C24.1725 7.00366 24.4577 7.1218 24.668 7.33209C24.8783 7.54238 24.9964 7.82759 24.9964 8.12498C24.9964 8.42237 24.8783 8.70759 24.668 8.91788L24.6679 8.91791L15.6553 17.9316L23.0822 7.33209ZM23.0822 7.33209L15.6549 17.9319C15.5363 18.0504 15.3897 18.1371 15.2288 18.1841L15.2285 18.1842L13.2323 18.7678L13.8156 16.7727L13.8157 16.7722C13.863 16.6114 13.95 16.4651 14.0686 16.3467L14.0692 16.3461L23.0822 7.33209ZM23.8751 5.00366C23.0473 5.00366 22.2533 5.33251 21.668 5.91788L21.6679 5.91791L12.6556 14.9313L12.6553 14.9315C12.2993 15.2871 12.0384 15.7265 11.8966 16.2093L11.8963 16.2104L11.0563 19.0834L11.0561 19.084C10.9808 19.3421 10.9763 19.6158 11.043 19.8763C11.1098 20.1367 11.2453 20.3745 11.4354 20.5646C11.6256 20.7548 11.8633 20.8903 12.1238 20.9571C12.3843 21.0238 12.6579 21.0193 12.9161 20.944L12.9167 20.9438L15.7894 20.1039C16.2727 19.9628 16.7127 19.7023 17.0689 19.3464L17.0692 19.3461L26.0822 10.3321L26.0822 10.332C26.6676 9.74669 26.9964 8.95279 26.9964 8.12498C26.9964 7.29716 26.6676 6.50324 26.0822 5.91788C25.4968 5.33251 24.7029 5.00366 23.8751 5.00366ZM9 6C8.20435 6 7.44129 6.31607 6.87868 6.87868C6.31607 7.44129 6 8.20435 6 9V23C6 23.7957 6.31607 24.5587 6.87868 25.1213C7.44129 25.6839 8.20435 26 9 26H23C23.7957 26 24.5587 25.6839 25.1213 25.1213C25.6839 24.5587 26 23.7957 26 23V16C26 15.4477 25.5523 15 25 15C24.4477 15 24 15.4477 24 16V23C24 23.2652 23.8946 23.5196 23.7071 23.7071C23.5196 23.8946 23.2652 24 23 24H9C8.73478 24 8.48043 23.8946 8.29289 23.7071C8.10536 23.5196 8 23.2652 8 23V9C8 8.73478 8.10536 8.48043 8.29289 8.29289C8.48043 8.10536 8.73478 8 9 8H16C16.5523 8 17 7.55228 17 7C17 6.44772 16.5523 6 16 6H9Z" fill="currentColor"/>
</symbol><symbol viewBox="0 0 32 32" fill="none" id="icon-share" xmlns="http://www.w3.org/2000/svg">
<path fill-rule="evenodd" clip-rule="evenodd" d="M22 7C20.8954 7 20 7.89543 20 9C20 9.3479 20.0888 9.67506 20.245 9.96002C20.2549 9.975 20.2644 9.99032 20.2735 10.006C20.2826 10.0215 20.2912 10.0372 20.2994 10.0531C20.6521 10.6215 21.2818 11 22 11C23.1046 11 24 10.1046 24 9C24 7.89543 23.1046 7 22 7ZM19.158 11.8148C19.8829 12.5467 20.8885 13 22 13C24.2091 13 26 11.2091 26 9C26 6.79086 24.2091 5 22 5C19.7909 5 18 6.79086 18 9C18 9.37699 18.0522 9.7418 18.1496 10.0876L12.8419 13.1851C12.117 12.4533 11.1114 12 10 12C7.79086 12 6 13.7909 6 16C6 18.2091 7.79086 20 10 20C11.1116 20 12.1174 19.5465 12.8423 18.8145L18.1509 21.908C18.0526 22.2551 18 22.6214 18 23C18 25.2091 19.7909 27 22 27C24.2091 27 26 25.2091 26 23C26 20.7909 24.2091 19 22 19C20.8902 19 19.8859 19.452 19.1613 20.1819L13.8505 17.0872C13.9479 16.7415 14 16.3768 14 16C14 15.623 13.9478 15.2581 13.8503 14.9122L19.158 11.8148ZM11.6988 14.944C11.7074 14.9608 11.7165 14.9775 11.7262 14.994C11.7359 15.0107 11.746 15.027 11.7565 15.0429C11.9118 15.3272 12 15.6533 12 16C12 16.3468 11.9117 16.6729 11.7565 16.9572C11.7459 16.9733 11.7356 16.9897 11.7258 17.0065C11.7163 17.0228 11.7073 17.0393 11.6988 17.0559C11.3458 17.6228 10.7169 18 10 18C8.89543 18 8 17.1046 8 16C8 14.8954 8.89543 14 10 14C10.7169 14 11.3457 14.3772 11.6988 14.944ZM20 23C20 22.6746 20.0777 22.3674 20.2156 22.0958C20.2401 22.0636 20.2629 22.0294 20.2839 21.9935C20.3039 21.959 20.3217 21.9239 20.3373 21.8882C20.6961 21.3526 21.3069 21 22 21C23.1046 21 24 21.8954 24 23C24 24.1046 23.1046 25 22 25C20.8954 25 20 24.1046 20 23Z" fill="currentColor"/>
</symbol><symbol viewBox="0 0 24 24" fill="none" id="icon-text-bold" xmlns="http://www.w3.org/2000/svg">
<path d="M6 12H15C16.0609 12 17.0783 12.4214 17.8284 13.1716C18.5786 13.9217 19 14.9391 19 16C19 17.0609 18.5786 18.0783 17.8284 18.8284C17.0783 19.5786 16.0609 20 15 20H7C6.73478 20 6.48043 19.8946 6.29289 19.7071C6.10536 19.5196 6 19.2652 6 19V5C6 4.73478 6.10536 4.48043 6.29289 4.29289C6.48043 4.10536 6.73478 4 7 4H14C15.0609 4 16.0783 4.42143 16.8284 5.17157C17.5786 5.92172 18 6.93913 18 8C18 9.06087 17.5786 10.0783 16.8284 10.8284C16.0783 11.5786 15.0609 12 14 12" stroke="currentColor" stroke-width="2" stroke-linecap="round" stroke-linejoin="round"/>
</symbol><symbol viewBox="0 0 24 24" fill="none" id="icon-text-italic" xmlns="http://www.w3.org/2000/svg">
<path d="M19 4H10M14 20H5M15 4L9 20" stroke="currentColor" stroke-width="2" stroke-linecap="round" stroke-linejoin="round"/>
</symbol><symbol viewBox="0 0 24 24" fill="none" id="icon-text-type" xmlns="http://www.w3.org/2000/svg">
<path d="M4 7V4H20V7M9 20H15M12 4V20" stroke="currentColor" stroke-width="2" stroke-linecap="round" stroke-linejoin="round"/>
</symbol><symbol viewBox="0 0 24 24" fill="none" id="icon-trash" xmlns="http://www.w3.org/2000/svg">
<path d="M3 6H21M19 6V20C19 21 18 22 17 22H7C6 22 5 21 5 20V6M8 6V4C8 3 9 2 10 2H14C15 2 16 3 16 4V6M10 11V17M14 11V17" stroke="currentColor" stroke-width="2" stroke-linecap="round" stroke-linejoin="round"/>
</symbol><symbol viewBox="0 0 32 32" fill="none" id="icon-tv" xmlns="http://www.w3.org/2000/svg">
<path fill-rule="evenodd" clip-rule="evenodd" d="M11.7071 5.29289C11.3166 4.90237 10.6834 4.90237 10.2929 5.29289C9.90237 5.68342 9.90237 6.31658 10.2929 6.70711L13.5858 10H8C6.34315 10 5 11.3431 5 13V24C5 25.6569 6.34315 27 8 27H24C25.6569 27 27 25.6569 27 24V13C27 11.3431 25.6569 10 24 10H18.4142L21.7071 6.70711C22.0976 6.31658 22.0976 5.68342 21.7071 5.29289C21.3166 4.90237 20.6834 4.90237 20.2929 5.29289L16 9.58579L11.7071 5.29289ZM7 13C7 12.4477 7.44772 12 8 12H24C24.5523 12 25 12.4477 25 13V24C25 24.5523 24.5523 25 24 25H8C7.44772 25 7 24.5523 7 24V13Z" fill="currentColor"/>
</symbol><symbol viewBox="0 0 40 40" fill="none" id="icon-user" xmlns="http://www.w3.org/2000/svg">
<g clip-path="url(#lclip0_4081_1949)">
<path d="M32.1239 27.7985C31.9914 28.1807 31.7137 28.4953 31.351 28.6743C30.9882 28.8532 30.5695 28.8821 30.1856 28.7547C29.8017 28.6273 29.4834 28.3538 29.2997 27.9934C29.1159 27.633 29.0815 27.2148 29.2039 26.8292C29.7369 25.2041 30.006 23.5041 30.0008 21.7938C30.0008 14.9385 25.7608 10.3908 20.0008 10.3908C14.2408 10.3908 10.0008 14.9385 10.0008 21.7938C10.0008 23.5477 10.2747 25.2508 10.7977 26.8292C10.9201 27.2148 10.8857 27.633 10.7019 27.9934C10.5182 28.3538 10.1999 28.6273 9.816 28.7547C9.43208 28.8821 9.01343 28.8532 8.65066 28.6743C8.2879 28.4953 8.01022 28.1807 7.87773 27.7985C7.24083 25.8608 6.91879 23.8335 6.92389 21.7938C6.92389 13.2862 12.4916 7.31384 20.0008 7.31384C27.51 7.31384 33.0777 13.2862 33.0777 21.7938C33.0777 23.8769 32.7516 25.9062 32.1239 27.7985Z" fill="currentColor"/>
<path d="M13.8117 30.8215C12.5925 30.7981 11.432 30.293 10.584 29.4167C9.73588 28.5404 9.26909 27.364 9.28558 26.1446V26.1108C9.3026 24.8959 9.80117 23.7375 10.6718 22.8899C11.5424 22.0424 12.7138 21.5752 13.9287 21.5908H13.9548C14.3612 21.5989 14.7479 21.7675 15.0304 22.0598C15.3129 22.3521 15.4683 22.7443 15.4625 23.1508L15.3794 29.3046C15.3766 29.5073 15.3338 29.7075 15.2534 29.8935C15.173 30.0796 15.0566 30.248 14.9109 30.389C14.7652 30.5299 14.5931 30.6407 14.4045 30.7149C14.2159 30.7892 14.0144 30.8254 13.8117 30.8215ZM26.2917 21.5385C27.511 21.5619 28.6714 22.067 29.5195 22.9433C30.3676 23.8196 30.8344 24.996 30.8179 26.2154V26.2492C30.8009 27.4641 30.3023 28.6225 29.4317 29.47C28.5611 30.3176 27.3897 30.7848 26.1748 30.7692H26.1502C25.7435 30.7615 25.3564 30.5931 25.0736 30.3008C24.7907 30.0084 24.6352 29.616 24.641 29.2092L24.724 23.0554C24.7268 22.8527 24.7697 22.6525 24.8501 22.4664C24.9305 22.2804 25.0469 22.112 25.1925 21.971C25.3382 21.8301 25.5103 21.7193 25.699 21.645C25.8876 21.5708 26.0891 21.5346 26.2917 21.5385Z" fill="currentColor"/>
<path fill-rule="evenodd" clip-rule="evenodd" d="M20 36.9231C29.3462 36.9231 36.9231 29.3462 36.9231 20C36.9231 10.6538 29.3462 3.07692 20 3.07692C10.6538 3.07692 3.07692 10.6538 3.07692 20C3.07692 29.3462 10.6538 36.9231 20 36.9231ZM20 40C31.0462 40 40 31.0462 40 20C40 8.95385 31.0462 0 20 0C8.95385 0 0 8.95385 0 20C0 31.0462 8.95385 40 20 40Z" fill="currentColor"/>
</g>
<defs>
<clipPath id="lclip0_4081_1949">
<rect width="40" height="40" fill="currentColor"/>
</clipPath>
</defs>
</symbol></svg>