<svg aria-hidden="true" xmlns="http://www.w3.org/2000/svg" xmlns:xlink="http://www.w3.org/1999/xlink"><symbol viewBox="0 0 20 20" fill="none" id="icon-arrow" xmlns="http://www.w3.org/2000/svg">
<path d="M5 7.5L10 12.5L15 7.5" stroke="currentColor" stroke-width="2" stroke-linecap="square" stroke-linejoin="round"/>
</symbol><symbol viewBox="0 0 32 32" fill="none" id="icon-close" xmlns="http://www.w3.org/2000/svg">
<path d="M24 8L8 24" stroke="currentColor" stroke-width="3" stroke-linecap="round" stroke-linejoin="round"/>
<path d="M8 8L24 24" stroke="currentColor" stroke-width="3" stroke-linecap="round" stroke-linejoin="round"/>
</symbol><symbol viewBox="0 0 40 40" fill="none" id="icon-user" xmlns="http://www.w3.org/2000/svg">
<g clip-path="url(#cclip0_4081_1949)">
<path d="M32.1239 27.7985C31.9914 28.1807 31.7137 28.4953 31.351 28.6743C30.9882 28.8532 30.5695 28.8821 30.1856 28.7547C29.8017 28.6273 29.4834 28.3538 29.2997 27.9934C29.1159 27.633 29.0815 27.2148 29.2039 26.8292C29.7369 25.2041 30.006 23.5041 30.0008 21.7938C30.0008 14.9385 25.7608 10.3908 20.0008 10.3908C14.2408 10.3908 10.0008 14.9385 10.0008 21.7938C10.0008 23.5477 10.2747 25.2508 10.7977 26.8292C10.9201 27.2148 10.8857 27.633 10.7019 27.9934C10.5182 28.3538 10.1999 28.6273 9.816 28.7547C9.43208 28.8821 9.01343 28.8532 8.65066 28.6743C8.2879 28.4953 8.01022 28.1807 7.87773 27.7985C7.24083 25.8608 6.91879 23.8335 6.92389 21.7938C6.92389 13.2862 12.4916 7.31384 20.0008 7.31384C27.51 7.31384 33.0777 13.2862 33.0777 21.7938C33.0777 23.8769 32.7516 25.9062 32.1239 27.7985Z" fill="currentColor"/>
<path d="M13.8117 30.8215C12.5925 30.7981 11.432 30.293 10.584 29.4167C9.73588 28.5404 9.26909 27.364 9.28558 26.1446V26.1108C9.3026 24.8959 9.80117 23.7375 10.6718 22.8899C11.5424 22.0424 12.7138 21.5752 13.9287 21.5908H13.9548C14.3612 21.5989 14.7479 21.7675 15.0304 22.0598C15.3129 22.3521 15.4683 22.7443 15.4625 23.1508L15.3794 29.3046C15.3766 29.5073 15.3338 29.7075 15.2534 29.8935C15.173 30.0796 15.0566 30.248 14.9109 30.389C14.7652 30.5299 14.5931 30.6407 14.4045 30.7149C14.2159 30.7892 14.0144 30.8254 13.8117 30.8215ZM26.2917 21.5385C27.511 21.5619 28.6714 22.067 29.5195 22.9433C30.3676 23.8196 30.8344 24.996 30.8179 26.2154V26.2492C30.8009 27.4641 30.3023 28.6225 29.4317 29.47C28.5611 30.3176 27.3897 30.7848 26.1748 30.7692H26.1502C25.7435 30.7615 25.3564 30.5931 25.0736 30.3008C24.7907 30.0084 24.6352 29.616 24.641 29.2092L24.724 23.0554C24.7268 22.8527 24.7697 22.6525 24.8501 22.4664C24.9305 22.2804 25.0469 22.112 25.1925 21.971C25.3382 21.8301 25.5103 21.7193 25.699 21.645C25.8876 21.5708 26.0891 21.5346 26.2917 21.5385Z" fill="currentColor"/>
<path fill-rule="evenodd" clip-rule="evenodd" d="M20 36.9231C29.3462 36.9231 36.9231 29.3462 36.9231 20C36.9231 10.6538 29.3462 3.07692 20 3.07692C10.6538 3.07692 3.07692 10.6538 3.07692 20C3.07692 29.3462 10.6538 36.9231 20 36.9231ZM20 40C31.0462 40 40 31.0462 40 20C40 8.95385 31.0462 0 20 0C8.95385 0 0 8.95385 0 20C0 31.0462 8.95385 40 20 40Z" fill="currentColor"/>
</g>
<defs>
<clipPath id="cclip0_4081_1949">
<rect width="40" height="40" fill="currentColor"/>
</clipPath>
</defs>
</symbol></svg>