<svg width="52" height="27" viewBox="0 0 52 27" fill="none" xmlns="http://www.w3.org/2000/svg">
<g clip-path="url(#clip0_147_9651)">
<path d="M44.9647 7.70748V14.3085H42.6854V9.67803H40.4907V14.3085H38.2114V7.70703L44.9647 7.70748Z" fill="black"/>
<path fill-rule="evenodd" clip-rule="evenodd" d="M33.5303 14.5437C35.5707 14.5437 37.0859 13.25 37.0859 11.2886C37.0859 9.39031 35.968 8.15776 34.0997 8.15776C33.2375 8.15776 32.526 8.47163 31.9901 9.01321C32.1181 7.89383 33.0334 7.07663 34.0412 7.07663C34.2738 7.07663 36.0248 7.07281 36.0248 7.07281L37.015 5.11328C37.015 5.11328 34.8166 5.16503 33.7947 5.16503C31.4597 5.20711 29.8825 7.40198 29.8825 10.0678C29.8825 13.1735 31.4208 14.5437 33.5303 14.5437ZM33.5427 9.89341C34.3003 9.89341 34.8256 10.4082 34.8256 11.2884C34.8256 12.0806 34.3589 12.7334 33.5427 12.7352C32.7621 12.7352 32.2369 12.1304 32.2369 11.3019C32.2369 10.4215 32.7621 9.89341 33.5427 9.89341Z" fill="black"/>
<path d="M28.0273 12.0982C28.0273 12.0982 27.489 12.419 26.685 12.4798C25.7608 12.5081 24.9373 11.9045 24.9373 10.8319C24.9373 9.78564 25.664 9.18602 26.6618 9.18602C27.2736 9.18602 28.0829 9.62454 28.0829 9.62454C28.0829 9.62454 28.6752 8.50067 28.982 7.93862C28.4202 7.49829 27.672 7.25687 26.8017 7.25687C24.6053 7.25687 22.9041 8.73782 22.9041 10.8186C22.9041 12.926 24.503 14.3725 26.8017 14.3288C27.4442 14.3041 28.3305 14.0708 28.8708 13.7119L28.0273 12.0982Z" fill="black"/>
<path d="M0 5.87701L3.16177 11.7214V15.2863L0.00369875 21.1192L0 5.87701Z" fill="#5B57A2"/>
<path d="M12.1399 9.59467L15.1026 7.71682L21.1659 7.71097L12.1399 13.4291V9.59467Z" fill="#D90751"/>
<path d="M12.1231 5.84257L12.1399 13.5803L8.9707 11.5666V0L12.1231 5.84257Z" fill="#FAB718"/>
<path d="M21.1659 7.71097L15.1024 7.71683L12.1231 5.84257L8.9707 0L21.1659 7.71097Z" fill="#ED6F26"/>
<path d="M12.1399 21.1516V17.3974L8.9707 15.4219L8.97244 27L12.1399 21.1516Z" fill="#63B22F"/>
<path d="M15.0952 19.2908L3.16156 11.7214L0 5.87701L21.1531 19.2832L15.0952 19.2908Z" fill="#1487C9"/>
<path d="M8.97278 27L12.1398 21.1516L15.0951 19.2908L21.153 19.2832L8.97278 27Z" fill="#017F36"/>
<path d="M0.00390625 21.1192L8.99686 15.4222L5.97346 13.5038L3.16198 15.2863L0.00390625 21.1192Z" fill="#984995"/>
<path d="M24.9379 18.7512C24.8683 18.843 24.7767 18.9123 24.6668 18.9591C24.5541 19.0066 24.4335 19.0307 24.3118 19.0302C24.1907 19.0319 24.0703 19.011 23.9565 18.9686C23.8542 18.9301 23.7607 18.8702 23.6819 18.7926C23.6041 18.7149 23.543 18.621 23.5026 18.5172C23.4589 18.4035 23.4371 18.2821 23.4384 18.1597C23.4384 18.0382 23.4586 17.9257 23.5006 17.819C23.5409 17.7122 23.5994 17.6206 23.6727 17.5436C23.7461 17.4651 23.834 17.4053 23.9327 17.3585C24.0335 17.3135 24.1433 17.2892 24.2641 17.2892C24.3942 17.2892 24.515 17.306 24.6248 17.3396C24.7347 17.3733 24.8281 17.4296 24.9049 17.5083L24.7713 17.7423C24.7067 17.6818 24.6306 17.6358 24.5478 17.6073C24.4692 17.5811 24.387 17.5679 24.3044 17.5682C24.2312 17.5682 24.1616 17.583 24.094 17.6111C24.0273 17.6389 23.9664 17.6796 23.9145 17.7311C23.8614 17.784 23.8196 17.8477 23.7917 17.9183C23.7606 17.9912 23.7461 18.0717 23.7461 18.1615C23.7461 18.2533 23.7624 18.3356 23.7935 18.4067C23.8248 18.4799 23.8668 18.5417 23.9199 18.5939C23.973 18.6466 24.0352 18.6857 24.1066 18.7121C24.1782 18.7402 24.2532 18.7532 24.3337 18.7532C24.4325 18.7532 24.5224 18.7325 24.5992 18.6932C24.6753 18.6552 24.7437 18.6025 24.8006 18.5379L24.9379 18.7512ZM25.315 18.9908V17.3247H25.6044V18.566L26.5454 17.3247H26.8347V18.9911H26.5454V17.7497L25.6044 18.9911L25.315 18.9908ZM28.7516 18.7512C28.6804 18.8438 28.587 18.9155 28.4807 18.9591C28.3679 19.0066 28.2472 19.0307 28.1254 19.0302C28.0044 19.0319 27.8841 19.011 27.7703 18.9686C27.6679 18.9301 27.5744 18.8702 27.4955 18.7926C27.4177 18.7149 27.3566 18.621 27.3162 18.5172C27.2725 18.4035 27.2507 18.2821 27.252 18.1597C27.252 18.0382 27.2723 17.9257 27.3143 17.819C27.3547 17.7122 27.4133 17.6206 27.4864 17.5436C27.5597 17.4651 27.6476 17.4053 27.7464 17.3585C27.8507 17.3109 27.9637 17.2873 28.0777 17.2892C28.2078 17.2892 28.3286 17.306 28.4385 17.3396C28.5483 17.3733 28.6417 17.4296 28.7187 17.5083L28.5849 17.7423C28.5204 17.6817 28.4444 17.6357 28.3617 17.6073C28.283 17.5811 28.2008 17.5679 28.1182 17.5682C27.9728 17.5686 27.8331 17.627 27.7281 17.7311C27.6755 17.7844 27.6338 17.848 27.6054 17.9183C27.5743 17.9912 27.5597 18.0717 27.5597 18.1615C27.5597 18.2533 27.5762 18.3356 27.6073 18.4067C27.6384 18.4799 27.6804 18.5417 27.7335 18.5939C27.7866 18.6466 27.8491 18.6857 27.9204 18.7121C27.9918 18.7382 28.0668 18.7532 28.1473 18.7532C28.2463 18.7532 28.3342 18.7325 28.4128 18.6932C28.4889 18.6552 28.5573 18.6025 28.6143 18.5379L28.7516 18.7512ZM28.8999 17.3247H30.3847V17.6206H29.7879V18.9908H29.4985V17.6206H28.9017V17.3247H28.8999Z" fill="black"/>
<path fill-rule="evenodd" clip-rule="evenodd" d="M31.736 18.9737C31.8459 18.9382 31.9392 18.8837 32.0197 18.809L31.9318 18.5768C31.8788 18.6257 31.8074 18.6668 31.7214 18.7006C31.6353 18.7343 31.5383 18.751 31.4321 18.751C31.2728 18.751 31.141 18.708 31.0365 18.62C30.9323 18.5318 30.8755 18.4085 30.8627 18.251H32.115C32.1279 18.193 32.1333 18.1275 32.1333 18.0508C32.1333 17.9365 32.1131 17.8337 32.0728 17.7401C32.0354 17.6492 31.9806 17.567 31.9118 17.4984C31.8421 17.4305 31.7599 17.3777 31.6701 17.3432C31.5761 17.3054 31.4761 17.2864 31.3753 17.2869C31.2397 17.2869 31.1207 17.3112 31.0165 17.3562C30.918 17.3991 30.8289 17.4621 30.7546 17.5416C30.6824 17.6206 30.627 17.7144 30.5918 17.8168C30.5531 17.9259 30.5339 18.0413 30.535 18.1574C30.535 18.2886 30.557 18.4083 30.5972 18.5152C30.6364 18.6187 30.6963 18.7125 30.773 18.7904C30.8481 18.8669 30.9395 18.9251 31.0476 18.9663C31.1634 19.0088 31.2855 19.0296 31.4084 19.028C31.5196 19.0273 31.6301 19.0088 31.736 18.9737ZM31.0037 17.6912C31.0933 17.6071 31.2123 17.5659 31.3625 17.5659C31.5034 17.5659 31.617 17.6053 31.6995 17.684C31.7819 17.7626 31.8257 17.8712 31.8331 18.0096H30.8444C30.8584 17.8871 30.915 17.7738 31.0037 17.6912Z" fill="black"/>
<path d="M32.5269 17.3242H32.7906L33.4168 18.15L34.0099 17.3242H34.2662V18.9906H33.977V17.7756L33.4131 18.5487H33.402L32.8163 17.7754V18.9904H32.5269V17.3242Z" fill="black"/>
<path fill-rule="evenodd" clip-rule="evenodd" d="M35.0533 17.3299C34.9655 17.3536 34.8816 17.3908 34.8044 17.4401L34.8812 17.6764C34.9472 17.6426 35.0131 17.6145 35.079 17.5902C35.1449 17.5657 35.2291 17.5544 35.3299 17.5544C35.4104 17.5544 35.4745 17.5677 35.5239 17.5938C35.5733 17.6181 35.6099 17.6557 35.6356 17.7007C35.6612 17.7457 35.6778 17.8017 35.6869 17.8672C35.696 17.9327 35.6997 18.0038 35.6997 18.0807C35.6405 18.038 35.573 18.0093 35.502 17.9963C35.4332 17.9822 35.3634 17.9747 35.2933 17.9738C35.2072 17.9738 35.1266 17.9871 35.0496 18.0094C34.9728 18.0319 34.9069 18.0656 34.8538 18.1106C34.7996 18.1556 34.7558 18.2124 34.7257 18.2771C34.6934 18.348 34.6771 18.4254 34.678 18.5037C34.678 18.6666 34.7239 18.794 34.8153 18.884C34.9069 18.9737 35.0277 19.0185 35.1778 19.0185C35.3133 19.0185 35.4215 18.9942 35.5037 18.9456C35.5862 18.8968 35.6521 18.8408 35.6997 18.7771V18.9924H35.9706V17.9702C35.9706 17.7529 35.9249 17.5846 35.8316 17.4665C35.74 17.3486 35.577 17.2887 35.3464 17.2887C35.2437 17.2887 35.1467 17.3036 35.0533 17.3299ZM35.537 18.6799C35.4711 18.7285 35.3849 18.7508 35.2787 18.7508C35.1854 18.7508 35.1121 18.7265 35.0609 18.6797C35.0096 18.6311 34.9839 18.5674 34.9839 18.4886C34.9839 18.4421 34.9931 18.4027 35.0133 18.3671C35.0335 18.3316 35.0609 18.3035 35.0921 18.281C35.1261 18.2574 35.1639 18.2403 35.2037 18.2303C35.2459 18.2191 35.2879 18.2135 35.3318 18.2135C35.4748 18.2135 35.5973 18.249 35.698 18.3239V18.5354C35.6505 18.5904 35.5964 18.6391 35.537 18.6799ZM38.5249 16.7381C38.5835 16.7102 38.6383 16.6634 38.6896 16.5941L38.5321 16.3601C38.4919 16.4164 38.4462 16.4555 38.3948 16.4762C38.3404 16.4982 38.284 16.5145 38.2264 16.5248L38.1716 16.535C38.1239 16.5435 38.0728 16.553 38.0178 16.5624C37.9295 16.5793 37.8434 16.6069 37.7615 16.6448C37.6314 16.7028 37.5271 16.7813 37.4484 16.8806C37.3696 16.9798 37.3074 17.0921 37.2652 17.2158C37.2224 17.3412 37.1936 17.4712 37.1792 17.6033C37.1644 17.7383 37.1573 17.8672 37.1573 17.9907C37.1573 18.15 37.1773 18.294 37.2175 18.4232C37.258 18.5525 37.3146 18.661 37.3896 18.749C37.4647 18.839 37.5545 18.9065 37.6607 18.9551C37.7669 19.0037 37.8859 19.028 38.0195 19.028C38.1422 19.028 38.2558 19.0037 38.3583 18.9587C38.4571 18.9154 38.5467 18.8525 38.622 18.7735C38.6951 18.6965 38.7538 18.6047 38.7941 18.5019C38.8361 18.3989 38.8563 18.2884 38.8563 18.1723C38.8563 18.047 38.838 17.9329 38.8032 17.8316C38.7711 17.7351 38.72 17.6465 38.6531 17.5715C38.586 17.4978 38.5041 17.4402 38.4131 17.4028C38.3129 17.362 38.206 17.3416 38.0983 17.3429C38.0286 17.3429 37.961 17.3524 37.895 17.3711C37.8309 17.3898 37.7694 17.4168 37.7119 17.4516C37.656 17.4847 37.6049 17.5256 37.56 17.5731C37.516 17.6201 37.4795 17.6726 37.4538 17.7324H37.4464C37.4521 17.6557 37.4612 17.5772 37.4775 17.4966C37.4941 17.4161 37.5178 17.3391 37.5491 17.2662C37.5802 17.1933 37.6205 17.1276 37.6699 17.0678C37.7228 17.0074 37.7878 16.9595 37.8602 16.9274C37.9399 16.8881 38.0243 16.8598 38.1111 16.8432L38.1685 16.8324C38.2258 16.8216 38.2804 16.8113 38.3326 16.8C38.4022 16.7852 38.4662 16.766 38.5249 16.7381ZM37.5069 18.339C37.4786 18.2445 37.465 18.1459 37.4666 18.047C37.4789 17.9902 37.5013 17.9362 37.5326 17.8879C37.5637 17.8373 37.6039 17.7925 37.6516 17.7529C37.7591 17.6658 37.892 17.619 38.0286 17.6201C38.199 17.6201 38.3272 17.6744 38.4168 17.7812C38.5067 17.8897 38.5506 18.0245 38.5506 18.1874C38.5506 18.2679 38.5358 18.341 38.5103 18.4083C38.4856 18.4747 38.4482 18.5352 38.4004 18.5864C38.3526 18.6375 38.2954 18.6782 38.2321 18.706C38.1661 18.7359 38.0946 18.751 38.0141 18.751C37.9336 18.751 37.8602 18.7341 37.7926 18.7004C37.7253 18.6673 37.6659 18.6194 37.6185 18.56C37.5689 18.4938 37.5311 18.4189 37.5069 18.339ZM41.0753 17.3243H40.7859V18.9906H41.0753V17.3243ZM39.2736 17.3243H39.563V17.8242H39.8304C39.9566 17.8242 40.059 17.8411 40.1415 17.8728C40.224 17.9048 40.2899 17.9477 40.3393 18.0002C40.3887 18.0526 40.4235 18.1145 40.4437 18.1835C40.4637 18.2528 40.4748 18.3239 40.4748 18.3989C40.4748 18.4738 40.4637 18.5451 40.44 18.6162C40.418 18.6873 40.3795 18.749 40.3282 18.8052C40.277 18.8615 40.2074 18.9065 40.1195 18.9402C40.0316 18.9737 39.9254 18.9924 39.7973 18.9924H39.2719V17.3243H39.2736ZM39.563 18.103V18.7134H39.7736C39.9183 18.7134 40.0207 18.6873 40.0793 18.6347C40.138 18.5822 40.1672 18.5075 40.1672 18.4083C40.1672 18.3071 40.1361 18.2306 40.0775 18.1779C40.017 18.1255 39.9163 18.0992 39.7773 18.0992H39.563V18.103Z" fill="black"/>
<path d="M42.9887 18.7512C42.9191 18.843 42.8275 18.9123 42.7176 18.9591C42.6049 19.0066 42.4842 19.0307 42.3625 19.0302C42.2415 19.0319 42.1211 19.011 42.0072 18.9686C41.9049 18.9302 41.8114 18.8703 41.7327 18.7926C41.6549 18.7148 41.5937 18.621 41.5532 18.5172C41.5096 18.4035 41.4879 18.282 41.4892 18.1597C41.4892 18.0382 41.5092 17.9257 41.5514 17.819C41.5917 17.7122 41.6502 17.6206 41.7235 17.5436C41.7968 17.4651 41.8845 17.4053 41.9835 17.3585C42.0878 17.3109 42.2009 17.2873 42.3149 17.2892C42.4448 17.2892 42.5657 17.306 42.6756 17.3396C42.7855 17.3733 42.8788 17.4296 42.9556 17.5083L42.822 17.7423C42.7574 17.6818 42.6813 17.6358 42.5986 17.6073C42.5199 17.5811 42.4378 17.5679 42.3551 17.5682C42.282 17.5682 42.2124 17.583 42.1445 17.6111C42.0779 17.6389 42.0171 17.6796 41.9652 17.7311C41.9126 17.7843 41.8709 17.848 41.8425 17.9183C41.8114 17.9912 41.7968 18.0717 41.7968 18.1615C41.7968 18.2533 41.8132 18.3356 41.8443 18.4067C41.8754 18.4799 41.9176 18.5417 41.9707 18.5939C42.0238 18.6466 42.086 18.6857 42.1574 18.7121C42.2289 18.7382 42.304 18.7532 42.3845 18.7532C42.4833 18.7532 42.5712 18.7325 42.6499 18.6932C42.7261 18.6552 42.7944 18.6025 42.8514 18.5379L42.9887 18.7512ZM43.1369 17.3247H44.6218V17.6206H44.0248V18.9908H43.7356V17.6206H43.1388V17.3247H43.1369Z" fill="black"/>
<path fill-rule="evenodd" clip-rule="evenodd" d="M45.226 17.3248H44.9366V19.7323H45.226V18.9142C45.2845 18.9536 45.3542 18.9817 45.4347 19.0004C45.5152 19.0191 45.5994 19.0283 45.6855 19.0283C45.8137 19.0283 45.929 19.004 46.0334 18.9592C46.1336 18.9149 46.2244 18.8507 46.3006 18.7702C46.3757 18.6894 46.4325 18.5958 46.4727 18.4854C46.513 18.3751 46.5332 18.257 46.5332 18.1317C46.5332 18.0079 46.5149 17.8938 46.4801 17.7908C46.4473 17.6929 46.3963 17.6026 46.33 17.5251C46.2649 17.4494 46.1841 17.3899 46.0937 17.3509C45.9949 17.307 45.8882 17.2853 45.7806 17.2872C45.6673 17.2872 45.5611 17.3097 45.4603 17.3547C45.3596 17.3997 45.2808 17.4537 45.226 17.5212V17.3248ZM45.4275 17.6337C45.51 17.5887 45.5996 17.5662 45.6966 17.5662C45.7808 17.5662 45.8559 17.5793 45.9238 17.6074C45.9897 17.6355 46.0445 17.6749 46.0904 17.7273C46.1361 17.7798 46.1709 17.8398 46.1929 17.9107C46.2166 17.9818 46.2277 18.0588 46.2277 18.1429C46.2277 18.2329 46.2129 18.3132 46.1875 18.3882C46.1635 18.4592 46.1254 18.5243 46.0756 18.5792C46.0257 18.6334 45.9652 18.6762 45.8981 18.7045C45.8233 18.7369 45.7429 18.7528 45.6618 18.7513C45.5833 18.7513 45.51 18.7421 45.4403 18.7234C45.3641 18.702 45.2918 18.6678 45.2262 18.6222V17.7964C45.2774 17.733 45.3453 17.6787 45.4275 17.6337ZM48.7522 17.3246H48.4629V18.9909H48.7522V17.3246ZM46.9488 17.3246H47.2381V17.8245H47.5053C47.6317 17.8245 47.7342 17.8414 47.8167 17.8731C47.8991 17.9051 47.965 17.9481 48.0144 18.0005C48.0638 18.0529 48.0986 18.1148 48.1187 18.1839C48.1389 18.2532 48.1498 18.3243 48.1498 18.3992C48.1498 18.4741 48.1389 18.5454 48.1152 18.6165C48.0932 18.6876 48.0547 18.7493 48.0033 18.8055C47.9522 18.8618 47.8826 18.9068 47.7947 18.9405C47.7068 18.9741 47.6006 18.9927 47.4725 18.9927H46.947V17.3246H46.9488ZM47.2401 18.1033V18.7137H47.4507C47.5952 18.7137 47.6979 18.6876 47.7564 18.635C47.8149 18.5826 47.8443 18.5079 47.8443 18.4086C47.8443 18.3074 47.8132 18.2309 47.7547 18.1782C47.6942 18.1258 47.5934 18.0995 47.4544 18.0995H47.2401V18.1033Z" fill="black"/>
<path d="M50.14 18.1275L50.7588 18.9906H50.4037L49.9257 18.3165L49.4405 18.9906H49.1037L49.7188 18.1423L49.1403 17.3242H49.4956L49.9368 17.9534L50.3853 17.3242H50.7223L50.14 18.1275ZM24.7238 21.05H23.8359V22.4392H23.5465V20.773H25.013V22.4392H24.7238V21.05ZM26.6552 21.0687H26.0841L26.0656 21.3495C26.0456 21.5873 26.0181 21.7783 25.9796 21.9241C25.9411 22.0704 25.8935 22.1827 25.8386 22.2612C25.7838 22.3399 25.7196 22.3942 25.6463 22.4205C25.5707 22.4489 25.4907 22.4628 25.4102 22.4617L25.3883 22.1732C25.4194 22.175 25.4559 22.1676 25.4962 22.1489C25.5367 22.1302 25.5769 22.0891 25.6152 22.0274C25.6537 21.9635 25.6885 21.8737 25.7196 21.7576C25.7507 21.6397 25.771 21.4863 25.7819 21.2932L25.8112 20.7746H26.9446V22.441H26.6552V21.0687Z" fill="black"/>
<path fill-rule="evenodd" clip-rule="evenodd" d="M27.7246 20.7765C27.631 20.8026 27.5468 20.84 27.4755 20.8868L27.5525 21.1228C27.6184 21.0891 27.6843 21.0609 27.7501 21.0366C27.816 21.0123 27.9004 21.0011 28.0009 21.0011C28.0816 21.0011 28.1456 21.0141 28.195 21.0402C28.2446 21.0648 28.2811 21.1021 28.3068 21.1471C28.3323 21.1921 28.3488 21.2484 28.358 21.3136C28.3671 21.3793 28.3708 21.4504 28.3708 21.5271C28.3116 21.4845 28.2441 21.4558 28.173 21.443C28.1043 21.4288 28.0344 21.4213 27.9644 21.4205C27.8784 21.4205 27.7977 21.4335 27.7209 21.456C27.6439 21.4785 27.578 21.5123 27.5249 21.5573C27.4707 21.6022 27.4269 21.6591 27.3967 21.7238C27.3645 21.7946 27.3483 21.8721 27.3493 21.9504C27.3493 22.113 27.395 22.2406 27.4866 22.3304C27.578 22.4202 27.6989 22.4652 27.849 22.4652C27.9846 22.4652 28.0925 22.4409 28.175 22.392C28.2572 22.3434 28.3231 22.2872 28.3708 22.2235V22.4388H28.6419V21.4167C28.6419 21.1995 28.596 21.031 28.5026 20.9131C28.411 20.795 28.2481 20.7354 28.0174 20.7354C27.9185 20.7354 27.82 20.7494 27.7246 20.7765ZM28.2098 22.1261C28.1441 22.1749 28.0579 22.1974 27.9517 22.1974C27.8564 22.1974 27.7851 22.1731 27.734 22.1261C27.6826 22.0775 27.6569 22.0138 27.6569 21.9353C27.6569 21.8885 27.6661 21.8491 27.6863 21.8136C27.7063 21.778 27.734 21.7499 27.7651 21.7274C27.7962 21.7049 27.8345 21.688 27.8767 21.6768C27.9185 21.6656 27.9616 21.66 28.0048 21.6601C28.1476 21.6601 28.2703 21.6957 28.371 21.7704V21.9819C28.3235 22.0369 28.2693 22.0853 28.2098 22.1261Z" fill="black"/>
<path d="M28.9254 20.7734H30.4104V21.0691H29.8133V22.4396H29.5242V21.0693H28.9274V20.7734H28.9254Z" fill="black"/>
<path fill-rule="evenodd" clip-rule="evenodd" d="M31.7617 22.422C31.8716 22.3864 31.9649 22.332 32.0454 22.2573L31.9575 22.0251C31.9044 22.0739 31.8331 22.1151 31.7469 22.1488C31.6609 22.1826 31.5639 22.1992 31.4577 22.1992C31.2985 22.1992 31.1666 22.1563 31.0622 22.0683C30.9578 21.9803 30.9012 21.8568 30.8883 21.6993H32.1407C32.1533 21.6415 32.159 21.5758 32.159 21.499C32.159 21.385 32.1387 21.2819 32.0985 21.1883C32.061 21.0975 32.0062 21.0153 31.9373 20.9469C31.8677 20.8788 31.7855 20.826 31.6958 20.7914C31.6018 20.7537 31.5018 20.7346 31.401 20.7352C31.2654 20.7352 31.1464 20.7595 31.0422 20.8045C30.9436 20.8472 30.8545 20.9103 30.7802 20.9899C30.7081 21.069 30.6526 21.1627 30.6173 21.265C30.5787 21.3741 30.5594 21.4895 30.5605 21.6057C30.5605 21.7369 30.5824 21.8566 30.6227 21.9634C30.6632 22.0701 30.7234 22.1619 30.7985 22.2386C30.8736 22.3153 30.9652 22.3734 31.0733 22.4146C31.189 22.4571 31.311 22.4781 31.4338 22.4764C31.5419 22.4764 31.6518 22.4575 31.7617 22.422ZM31.0276 21.1377C31.1172 21.0535 31.2362 21.0124 31.3864 21.0124C31.5293 21.0124 31.6409 21.0535 31.7234 21.1303C31.8056 21.209 31.8496 21.3175 31.857 21.4561H30.8683C30.8823 21.3335 30.9389 21.2203 31.0276 21.1377ZM32.3 20.7727H32.6661L33.2244 21.576L32.6276 22.4389H32.2725L32.8985 21.5758L32.3 20.7727ZM33.2958 20.7727H33.5852V22.4389H33.2958V20.7727ZM34.6195 22.4389L33.9825 21.5758L34.5775 20.7725H34.2185L33.6565 21.5758L34.2607 22.4389H34.6195ZM35.9415 22.422C36.0514 22.3864 36.1447 22.332 36.2252 22.2573L36.1373 22.0251C36.0842 22.0739 36.0129 22.1151 35.9269 22.1488C35.8408 22.1826 35.7437 22.1992 35.6375 22.1992C35.4783 22.1992 35.3464 22.1563 35.242 22.0683C35.1378 21.9803 35.081 21.8568 35.0681 21.6993H36.3205C36.3333 21.6415 36.3388 21.5758 36.3388 21.499C36.3388 21.385 36.3188 21.2819 36.2783 21.1883C36.2408 21.0975 36.186 21.0154 36.1173 20.9469C36.0476 20.8788 35.9654 20.826 35.8756 20.7914C35.7816 20.7537 35.6816 20.7346 35.5807 20.7352C35.4454 20.7352 35.3264 20.7595 35.222 20.8045C35.1235 20.8473 35.0344 20.9104 34.9602 20.9899C34.8879 21.0688 34.8324 21.1626 34.7973 21.265C34.7586 21.3741 34.7393 21.4895 34.7405 21.6057C34.7405 21.7369 34.7625 21.8566 34.8027 21.9634C34.843 22.0701 34.9034 22.1619 34.9785 22.2386C35.0536 22.3153 35.145 22.3734 35.2531 22.4146C35.3688 22.4571 35.491 22.4781 35.6138 22.4764C35.7251 22.4756 35.8356 22.4572 35.9415 22.422ZM35.2074 21.1377C35.2973 21.0535 35.4163 21.0124 35.5664 21.0124C35.7074 21.0124 35.8207 21.0535 35.9032 21.1303C35.9857 21.209 36.0296 21.3175 36.0368 21.4561H35.0481C35.0621 21.3335 35.1187 21.2203 35.2074 21.1377ZM37.5126 20.2129C37.3422 20.2129 37.2489 20.1155 37.2343 19.9209H36.9615C36.9615 19.9956 36.9743 20.0631 36.998 20.1268C37.022 20.1904 37.0568 20.2447 37.1025 20.2897C37.1481 20.3347 37.2069 20.3702 37.2746 20.3981C37.3422 20.4262 37.421 20.4393 37.5106 20.4393C37.5931 20.4393 37.6664 20.4262 37.7323 20.3981C37.7983 20.372 37.8531 20.3347 37.9007 20.2897C37.9464 20.2447 37.9832 20.1904 38.0086 20.1268C38.0343 20.0631 38.0472 19.9956 38.0472 19.9209H37.7763C37.7634 20.1155 37.6736 20.2129 37.5126 20.2129ZM36.7306 20.7725V22.4389H37.02L37.961 21.1975V22.4389H38.2504V20.7725H37.961L37.02 22.0138V20.7725H36.7306Z" fill="black"/>
</g>
<defs>
<clipPath id="clip0_147_9651">
<rect width="52" height="27" fill="white"/>
</clipPath>
</defs>
</svg>
