<svg width="56" height="56" viewBox="0 0 56 56" fill="none" xmlns="http://www.w3.org/2000/svg">
<path d="M50.4 30.7961C50.4 44.7938 40.6 51.7926 28.952 55.8519C28.342 56.0586 27.6795 56.0487 27.076 55.8239C15.4 51.7926 5.59998 44.7938 5.59998 30.7961V11.1994C5.59998 10.4569 5.89498 9.74483 6.42008 9.21982C6.94518 8.6948 7.65737 8.39985 8.39998 8.39985C14 8.39985 21 5.04041 25.872 0.785127C26.4652 0.278409 27.2198 0 28 0C28.7802 0 29.5348 0.278409 30.128 0.785127C35.028 5.06841 42 8.39985 47.6 8.39985C48.3426 8.39985 49.0548 8.6948 49.5799 9.21982C50.105 9.74483 50.4 10.4569 50.4 11.1994V30.7961Z" fill="black"/>
<path d="M19 28L25 34L37 22" stroke="#FFF100" stroke-width="4" stroke-linecap="round" stroke-linejoin="round"/>
</svg>
