<svg width="22" height="22" viewBox="0 0 22 22" fill="none" xmlns="http://www.w3.org/2000/svg">
<path d="M10.0359 2.50213C10.3055 1.5227 11.6945 1.5227 11.9641 2.50213L12.3302 3.83164C13.1139 6.67166 15.3284 8.88618 18.1684 9.66988L19.4979 10.0359C20.4773 10.3055 20.4773 11.6945 19.4979 11.9641L18.1684 12.3301C15.3284 13.1138 13.1139 15.3283 12.3302 18.1684L11.9641 19.4979C11.6945 20.4773 10.3055 20.4773 10.0359 19.4979L9.66988 18.1684C8.88618 15.3283 6.67168 13.1138 3.83166 12.3301L2.50218 11.9641C1.52274 11.6945 1.52274 10.3055 2.50218 10.0359L3.83166 9.66988C6.67168 8.88618 8.88618 6.67166 9.66988 3.83164L10.0359 2.50213Z" fill="#FFF100" stroke="black" stroke-width="2" stroke-miterlimit="10"/>
</svg>
