<svg width="51" height="23" viewBox="0 0 51 23" fill="none" xmlns="http://www.w3.org/2000/svg">
<g clip-path="url(#clip0_147_9673)">
<path d="M40.4033 0.71875H10.5967C4.74583 0.71875 0 5.54875 0 11.5C0 17.4513 4.74583 22.2812 10.5967 22.2812H40.4033C46.2542 22.2812 51 17.4513 51 11.5C51 5.54875 46.2542 0.71875 40.4033 0.71875Z" fill="#303030"/>
<path d="M24.0408 11.7157V9.96193H25.9108C26.3075 9.96193 26.5341 10.0051 26.7183 10.0769C27.0441 10.2063 27.2 10.5082 27.2 10.8388C27.2 11.1694 27.0158 11.5144 26.6616 11.6294C26.4916 11.6869 26.2933 11.7157 25.9108 11.7157H24.0408ZM26.2083 8.30881H21.9725V15.18H24.0266V13.3257H26.1941C26.7041 13.3257 27.2 13.3257 27.6816 13.1532C28.6166 12.8513 29.3108 12.0032 29.3108 10.8532C29.3108 9.70318 28.6308 8.85506 27.71 8.52443C27.2 8.33756 26.7183 8.30881 26.1941 8.30881H26.2083Z" fill="white"/>
<path d="M31.7617 14.1882H34.8783L35.275 15.18H37.5842L34.8217 8.30881H31.8183L29.0558 15.18H31.3792L31.7617 14.1882ZM32.2717 12.6644L33.2492 9.89006H33.405L34.3825 12.6644H32.2717Z" fill="white"/>
<path d="M42.5992 8.30881L40.9275 11.4426H40.8567L39.1708 8.30881H36.7767L39.8225 13.3544V15.18H41.9475V13.1819L44.8517 8.30881H42.5992Z" fill="white"/>
<path d="M6.14843 6.26767H17.581V12.1183C17.581 13.6133 16.7876 15.0077 15.5126 15.7552L11.8576 17.897L8.20261 15.7552C6.92761 15.0077 6.13428 13.6133 6.13428 12.1183V6.26767" fill="#FFDD2D"/>
<path fill-rule="evenodd" clip-rule="evenodd" d="M9.2934 9.34375V11.1694C9.53423 10.8819 9.98756 10.695 10.4976 10.695H11.0501V12.8081C11.0501 13.3688 10.8942 13.8575 10.6817 14.1306H13.0901C12.8634 13.8575 12.7217 13.3688 12.7217 12.8081V10.695H13.2742C13.7842 10.695 14.2235 10.8819 14.4785 11.1694V9.34375H9.32173" fill="#333333"/>
</g>
<defs>
<clipPath id="clip0_147_9673">
<rect width="51" height="23" fill="white"/>
</clipPath>
</defs>
</svg>
